# 3ds Max Wavefront OBJ Exporter v0.97b - (c)2007 guruware
# File Created: 16.09.2019 22:25:40

mtllib Horizon_Waterfalls.mtl

#
# object Cylinder4
#

v  831.9963 -10.6119 165.4944
v  831.9963 153.1895 165.4944
v  848.2960 153.1895 -0.0000
v  848.2960 -10.6119 -0.0000
v  783.7233 -10.6119 324.6288
v  783.7233 153.1895 324.6288
v  705.3324 -10.6119 471.2880
v  705.3324 153.1895 471.2880
v  599.8359 -10.6119 599.8359
v  599.8359 153.1895 599.8359
v  471.2880 -10.6119 705.3324
v  471.2880 153.1895 705.3324
v  324.6288 -10.6119 783.7233
v  324.6288 153.1895 783.7233
v  165.4944 -10.6119 831.9963
v  165.4944 153.1895 831.9963
v  0.0000 -10.6119 848.2960
v  0.0000 153.1895 848.2960
v  -165.4944 -10.6119 831.9963
v  -165.4944 153.1895 831.9963
v  -324.6288 -10.6119 783.7233
v  -324.6288 153.1895 783.7233
v  -471.2880 -10.6119 705.3324
v  -471.2880 153.1895 705.3324
v  -599.8359 -10.6119 599.8359
v  -599.8359 153.1895 599.8359
v  -705.3324 -10.6119 471.2880
v  -705.3324 153.1895 471.2880
v  -783.7233 -10.6119 324.6288
v  -783.7233 153.1895 324.6288
v  -831.9963 -10.6119 165.4944
v  -831.9963 153.1895 165.4944
v  -848.2960 -10.6119 0.0000
v  -848.2960 153.1895 0.0000
v  -831.9963 -10.6119 -165.4944
v  -831.9963 153.1895 -165.4944
v  -783.7233 -10.6119 -324.6288
v  -783.7233 153.1895 -324.6288
v  -705.3324 -10.6119 -471.2880
v  -705.3324 153.1895 -471.2880
v  -599.8359 -10.6119 -599.8359
v  -599.8359 153.1895 -599.8359
v  -471.2880 -10.6119 -705.3324
v  -471.2880 153.1895 -705.3324
v  -324.6288 -10.6119 -783.7233
v  -324.6288 153.1895 -783.7233
v  -165.4944 -10.6119 -831.9963
v  -165.4944 153.1895 -831.9963
v  -0.0000 -10.6119 -848.2960
v  -0.0000 153.1895 -848.2960
v  165.4944 -10.6119 -831.9963
v  165.4944 153.1895 -831.9963
v  324.6288 -10.6119 -783.7233
v  324.6288 153.1895 -783.7233
v  471.2880 -10.6119 -705.3324
v  471.2880 153.1895 -705.3324
v  599.8359 -10.6119 -599.8359
v  599.8359 153.1895 -599.8359
v  705.3324 -10.6119 -471.2880
v  705.3324 153.1895 -471.2880
v  783.7233 -10.6119 -324.6288
v  783.7233 153.1895 -324.6288
v  831.9963 -10.6119 -165.4944
v  831.9963 153.1895 -165.4944
v  850.7274 159.9722 -0.0000
v  834.3809 159.9722 -165.9687
v  785.9696 159.9722 325.5593
v  834.3809 159.9722 165.9687
v  707.3539 159.9722 472.6388
v  601.5551 159.9722 601.5551
v  472.6388 159.9722 707.3539
v  325.5593 159.9722 785.9696
v  165.9687 159.9722 834.3809
v  0.0000 159.9722 850.7274
v  -165.9687 159.9722 834.3809
v  -325.5593 159.9722 785.9696
v  -472.6388 159.9722 707.3539
v  -601.5551 159.9722 601.5551
v  -707.3539 159.9722 472.6388
v  -785.9696 159.9722 325.5593
v  -834.3809 159.9722 165.9687
v  -850.7274 159.9722 0.0000
v  -834.3809 159.9722 -165.9687
v  -785.9696 159.9722 -325.5593
v  -707.3539 159.9722 -472.6388
v  -601.5551 159.9722 -601.5551
v  -472.6388 159.9722 -707.3539
v  -325.5593 159.9722 -785.9696
v  -165.9687 159.9722 -834.3809
v  -0.0000 159.9722 -850.7274
v  165.9687 159.9722 -834.3809
v  325.5593 159.9722 -785.9696
v  472.6388 159.9722 -707.3539
v  601.5551 159.9722 -601.5551
v  707.3539 159.9722 -472.6388
v  785.9696 159.9722 -325.5593
v  795.9973 164.4602 329.7129
v  845.0262 164.4602 168.0862
v  716.3786 164.4602 478.6689
v  609.2299 164.4602 609.2299
v  478.6689 164.4602 716.3786
v  329.7129 164.4602 795.9973
v  168.0862 164.4602 845.0262
v  0.0000 164.4602 861.5812
v  -168.0862 164.4602 845.0262
v  -329.7129 164.4602 795.9973
v  -478.6689 164.4602 716.3786
v  -609.2299 164.4602 609.2299
v  -716.3786 164.4602 478.6689
v  -795.9973 164.4602 329.7129
v  -845.0262 164.4602 168.0862
v  -861.5812 164.4602 0.0000
v  -845.0262 164.4602 -168.0862
v  -795.9973 164.4602 -329.7129
v  -716.3786 164.4602 -478.6689
v  -609.2299 164.4602 -609.2299
v  -478.6689 164.4602 -716.3786
v  -329.7129 164.4602 -795.9973
v  -168.0862 164.4602 -845.0262
v  -0.0000 164.4602 -861.5812
v  168.0862 164.4602 -845.0262
v  329.7129 164.4602 -795.9973
v  478.6689 164.4602 -716.3786
v  609.2299 164.4602 -609.2299
v  716.3786 164.4602 -478.6689
v  795.9973 164.4602 -329.7129
v  845.0262 164.4602 -168.0862
v  861.5812 164.4602 -0.0000
# 128 vertices

vn -0.9808 0.0000 -0.1951
vn -0.9663 0.1713 -0.1922
vn -0.9852 0.1713 0.0000
vn -1.0000 0.0000 0.0000
vn -0.9239 0.0000 -0.3827
vn -0.9102 0.1713 -0.3770
vn -0.8315 0.0000 -0.5556
vn -0.8192 0.1713 -0.5474
vn -0.7071 0.0000 -0.7071
vn -0.6967 0.1713 -0.6967
vn -0.5556 0.0000 -0.8315
vn -0.5474 0.1713 -0.8192
vn -0.3827 0.0000 -0.9239
vn -0.3770 0.1713 -0.9102
vn -0.1951 0.0000 -0.9808
vn -0.1922 0.1713 -0.9663
vn 0.0000 0.0000 -1.0000
vn 0.0000 0.1713 -0.9852
vn 0.1951 0.0000 -0.9808
vn 0.1922 0.1713 -0.9663
vn 0.3827 0.0000 -0.9239
vn 0.3770 0.1713 -0.9102
vn 0.5556 0.0000 -0.8315
vn 0.5474 0.1713 -0.8192
vn 0.7071 0.0000 -0.7071
vn 0.6967 0.1713 -0.6967
vn 0.8315 0.0000 -0.5556
vn 0.8192 0.1713 -0.5474
vn 0.9239 0.0000 -0.3827
vn 0.9102 0.1713 -0.3770
vn 0.9808 0.0000 -0.1951
vn 0.9663 0.1713 -0.1922
vn 1.0000 0.0000 -0.0000
vn 0.9852 0.1713 -0.0000
vn 0.9808 0.0000 0.1951
vn 0.9663 0.1713 0.1922
vn 0.9239 0.0000 0.3827
vn 0.9102 0.1713 0.3770
vn 0.8315 0.0000 0.5556
vn 0.8192 0.1713 0.5474
vn 0.7071 0.0000 0.7071
vn 0.6967 0.1713 0.6967
vn 0.5556 0.0000 0.8315
vn 0.5474 0.1713 0.8192
vn 0.3827 0.0000 0.9239
vn 0.3770 0.1713 0.9102
vn 0.1951 0.0000 0.9808
vn 0.1922 0.1713 0.9663
vn 0.0000 0.0000 1.0000
vn 0.0000 0.1713 0.9852
vn -0.1951 0.0000 0.9808
vn -0.1922 0.1713 0.9663
vn -0.3827 0.0000 0.9239
vn -0.3770 0.1713 0.9102
vn -0.5556 0.0000 0.8315
vn -0.5474 0.1713 0.8192
vn -0.7071 0.0000 0.7071
vn -0.6967 0.1713 0.6967
vn -0.8315 0.0000 0.5556
vn -0.8192 0.1713 0.5474
vn -0.9239 0.0000 0.3827
vn -0.9102 0.1713 0.3770
vn -0.9808 0.0000 0.1951
vn -0.9663 0.1713 0.1922
vn -0.7233 0.6905 0.0000
vn -0.7094 0.6905 0.1411
vn -0.6682 0.6905 -0.2768
vn -0.7094 0.6905 -0.1411
vn -0.6014 0.6905 -0.4018
vn -0.5114 0.6905 -0.5114
vn -0.4018 0.6905 -0.6014
vn -0.2768 0.6905 -0.6682
vn -0.1411 0.6905 -0.7094
vn 0.0000 0.6905 -0.7233
vn 0.1411 0.6905 -0.7094
vn 0.2768 0.6905 -0.6682
vn 0.4018 0.6905 -0.6014
vn 0.5114 0.6905 -0.5114
vn 0.6014 0.6905 -0.4018
vn 0.6682 0.6905 -0.2768
vn 0.7094 0.6905 -0.1411
vn 0.7233 0.6905 -0.0000
vn 0.7094 0.6905 0.1411
vn 0.6682 0.6905 0.2768
vn 0.6014 0.6905 0.4018
vn 0.5114 0.6905 0.5114
vn 0.4018 0.6905 0.6014
vn 0.2768 0.6905 0.6682
vn 0.1411 0.6905 0.7094
vn 0.0000 0.6905 0.7233
vn -0.1411 0.6905 0.7094
vn -0.2768 0.6905 0.6682
vn -0.4018 0.6905 0.6014
vn -0.5114 0.6905 0.5114
vn -0.6014 0.6905 0.4018
vn -0.6682 0.6905 0.2768
vn -0.3530 0.9241 -0.1462
vn -0.3748 0.9241 -0.0745
vn -0.3177 0.9241 -0.2123
vn -0.2702 0.9241 -0.2702
vn -0.2123 0.9241 -0.3177
vn -0.1462 0.9241 -0.3530
vn -0.0745 0.9241 -0.3748
vn 0.0000 0.9241 -0.3821
vn 0.0745 0.9241 -0.3748
vn 0.1462 0.9241 -0.3530
vn 0.2123 0.9241 -0.3177
vn 0.2702 0.9241 -0.2702
vn 0.3177 0.9241 -0.2123
vn 0.3530 0.9241 -0.1462
vn 0.3748 0.9241 -0.0745
vn 0.3821 0.9241 -0.0000
vn 0.3748 0.9241 0.0745
vn 0.3530 0.9241 0.1462
vn 0.3177 0.9241 0.2123
vn 0.2702 0.9241 0.2702
vn 0.2123 0.9241 0.3177
vn 0.1462 0.9241 0.3530
vn 0.0745 0.9241 0.3748
vn 0.0000 0.9241 0.3821
vn -0.0745 0.9241 0.3748
vn -0.1462 0.9241 0.3530
vn -0.2123 0.9241 0.3177
vn -0.2702 0.9241 0.2702
vn -0.3177 0.9241 0.2123
vn -0.3530 0.9241 0.1462
vn -0.3748 0.9241 0.0745
vn -0.3821 0.9241 0.0000
# 128 vertex normals

vt 7.7359 0.7425 -0.0039
vt 7.7359 0.9794 -0.0039
vt 7.9853 0.9794 -0.0039
vt 7.9853 0.7425 -0.0039
vt 7.4864 0.7425 -0.0039
vt 7.4864 0.9794 -0.0039
vt 7.2370 0.7425 -0.0039
vt 7.2370 0.9794 -0.0039
vt 6.9876 0.7425 -0.0039
vt 6.9876 0.9794 -0.0039
vt 6.7381 0.7425 -0.0039
vt 6.7381 0.9794 -0.0039
vt 6.4887 0.7425 -0.0039
vt 6.4887 0.9794 -0.0039
vt 6.2393 0.7425 -0.0039
vt 6.2393 0.9794 -0.0039
vt 5.9898 0.7425 -0.0039
vt 5.9898 0.9794 -0.0039
vt 5.7404 0.7425 -0.0039
vt 5.7404 0.9794 -0.0039
vt 5.4910 0.7425 -0.0039
vt 5.4910 0.9794 -0.0039
vt 5.2415 0.7425 -0.0039
vt 5.2415 0.9794 -0.0039
vt 4.9921 0.7425 -0.0039
vt 4.9921 0.9794 -0.0039
vt 4.7427 0.7425 -0.0039
vt 4.7427 0.9794 -0.0039
vt 4.4932 0.7425 -0.0039
vt 4.4932 0.9794 -0.0039
vt 4.2438 0.7425 -0.0039
vt 4.2438 0.9794 -0.0039
vt 3.9944 0.7425 -0.0039
vt 3.9944 0.9794 -0.0039
vt 3.7449 0.7425 -0.0039
vt 3.7449 0.9794 -0.0039
vt 3.4955 0.7425 -0.0039
vt 3.4955 0.9794 -0.0039
vt 3.2461 0.7425 -0.0039
vt 3.2461 0.9794 -0.0039
vt 2.9966 0.7425 -0.0039
vt 2.9966 0.9794 -0.0039
vt 2.7472 0.7425 -0.0039
vt 2.7472 0.9794 -0.0039
vt 2.4978 0.7425 -0.0039
vt 2.4978 0.9794 -0.0039
vt 2.2483 0.7425 -0.0039
vt 2.2483 0.9794 -0.0039
vt 1.9989 0.7425 -0.0039
vt 1.9989 0.9794 -0.0039
vt 1.7495 0.7425 -0.0039
vt 1.7495 0.9794 -0.0039
vt 1.5000 0.7425 -0.0039
vt 1.5000 0.9794 -0.0039
vt 1.2506 0.7425 -0.0039
vt 1.2506 0.9794 -0.0039
vt 1.0012 0.7425 -0.0039
vt 1.0012 0.9794 -0.0039
vt 0.7517 0.7425 -0.0039
vt 0.7517 0.9794 -0.0039
vt 0.5023 0.7425 -0.0039
vt 0.5023 0.9794 -0.0039
vt 0.2529 0.7425 -0.0039
vt 0.2529 0.9794 -0.0039
vt 0.0034 0.7425 -0.0039
vt 0.0034 0.9794 -0.0039
vt 0.0034 0.9892 -0.0024
vt 0.2529 0.9892 -0.0024
vt 7.4864 0.9892 -0.0024
vt 7.7359 0.9892 -0.0024
vt 7.2370 0.9892 -0.0024
vt 6.9876 0.9892 -0.0024
vt 6.7381 0.9892 -0.0024
vt 6.4887 0.9892 -0.0024
vt 6.2393 0.9892 -0.0024
vt 5.9898 0.9892 -0.0024
vt 5.7404 0.9892 -0.0024
vt 5.4910 0.9892 -0.0024
vt 5.2415 0.9892 -0.0024
vt 4.9921 0.9892 -0.0024
vt 4.7427 0.9892 -0.0024
vt 4.4932 0.9892 -0.0024
vt 4.2438 0.9892 -0.0024
vt 3.9944 0.9892 -0.0024
vt 3.7449 0.9892 -0.0024
vt 3.4955 0.9892 -0.0024
vt 3.2461 0.9892 -0.0024
vt 2.9966 0.9892 -0.0024
vt 2.7472 0.9892 -0.0024
vt 2.4978 0.9892 -0.0024
vt 2.2483 0.9892 -0.0024
vt 1.9989 0.9892 -0.0024
vt 1.7495 0.9892 -0.0024
vt 1.5000 0.9892 -0.0024
vt 1.2506 0.9892 -0.0024
vt 1.0012 0.9892 -0.0024
vt 0.7517 0.9892 -0.0024
vt 0.5023 0.9892 -0.0024
vt 7.9853 0.9892 -0.0024
vt 7.4864 0.9957 0.0039
vt 7.7359 0.9957 0.0039
vt 7.2370 0.9957 0.0039
vt 6.9876 0.9957 0.0039
vt 6.7381 0.9957 0.0039
vt 6.4887 0.9957 0.0039
vt 6.2393 0.9957 0.0039
vt 5.9898 0.9957 0.0039
vt 5.7404 0.9957 0.0039
vt 5.4910 0.9957 0.0039
vt 5.2415 0.9957 0.0039
vt 4.9921 0.9957 0.0039
vt 4.7427 0.9957 0.0039
vt 4.4932 0.9957 0.0039
vt 4.2438 0.9957 0.0039
vt 3.9944 0.9957 0.0039
vt 3.7449 0.9957 0.0039
vt 3.4955 0.9957 0.0039
vt 3.2461 0.9957 0.0039
vt 2.9966 0.9957 0.0039
vt 2.7472 0.9957 0.0039
vt 2.4978 0.9957 0.0039
vt 2.2483 0.9957 0.0039
vt 1.9989 0.9957 0.0039
vt 1.7495 0.9957 0.0039
vt 1.5000 0.9957 0.0039
vt 1.2506 0.9957 0.0039
vt 1.0012 0.9957 0.0039
vt 0.7517 0.9957 0.0039
vt 0.5023 0.9957 0.0039
vt 0.2529 0.9957 0.0039
vt 0.0034 0.9957 0.0039
vt 7.9853 0.9957 0.0039
# 132 texture coords

o Cylinder4
g Cylinder4
usemtl default
s 1
f 1/1/1 2/2/2 3/3/3 4/4/4 
f 5/5/5 6/6/6 2/2/2 1/1/1 
f 7/7/7 8/8/8 6/6/6 5/5/5 
f 9/9/9 10/10/10 8/8/8 7/7/7 
f 11/11/11 12/12/12 10/10/10 9/9/9 
f 13/13/13 14/14/14 12/12/12 11/11/11 
f 15/15/15 16/16/16 14/14/14 13/13/13 
f 17/17/17 18/18/18 16/16/16 15/15/15 
f 19/19/19 20/20/20 18/18/18 17/17/17 
f 21/21/21 22/22/22 20/20/20 19/19/19 
f 23/23/23 24/24/24 22/22/22 21/21/21 
f 25/25/25 26/26/26 24/24/24 23/23/23 
f 27/27/27 28/28/28 26/26/26 25/25/25 
f 29/29/29 30/30/30 28/28/28 27/27/27 
f 31/31/31 32/32/32 30/30/30 29/29/29 
f 33/33/33 34/34/34 32/32/32 31/31/31 
f 35/35/35 36/36/36 34/34/34 33/33/33 
f 37/37/37 38/38/38 36/36/36 35/35/35 
f 39/39/39 40/40/40 38/38/38 37/37/37 
f 41/41/41 42/42/42 40/40/40 39/39/39 
f 43/43/43 44/44/44 42/42/42 41/41/41 
f 45/45/45 46/46/46 44/44/44 43/43/43 
f 47/47/47 48/48/48 46/46/46 45/45/45 
f 49/49/49 50/50/50 48/48/48 47/47/47 
f 51/51/51 52/52/52 50/50/50 49/49/49 
f 53/53/53 54/54/54 52/52/52 51/51/51 
f 55/55/55 56/56/56 54/54/54 53/53/53 
f 57/57/57 58/58/58 56/56/56 55/55/55 
f 59/59/59 60/60/60 58/58/58 57/57/57 
f 61/61/61 62/62/62 60/60/60 59/59/59 
f 63/63/63 64/64/64 62/62/62 61/61/61 
f 64/64/64 63/63/63 4/65/4 3/66/3 
f 65/67/65 66/68/66 64/64/64 3/66/3 
f 6/6/6 67/69/67 68/70/68 2/2/2 
f 8/8/8 69/71/69 67/69/67 6/6/6 
f 10/10/10 70/72/70 69/71/69 8/8/8 
f 12/12/12 71/73/71 70/72/70 10/10/10 
f 14/14/14 72/74/72 71/73/71 12/12/12 
f 16/16/16 73/75/73 72/74/72 14/14/14 
f 18/18/18 74/76/74 73/75/73 16/16/16 
f 20/20/20 75/77/75 74/76/74 18/18/18 
f 22/22/22 76/78/76 75/77/75 20/20/20 
f 24/24/24 77/79/77 76/78/76 22/22/22 
f 26/26/26 78/80/78 77/79/77 24/24/24 
f 28/28/28 79/81/79 78/80/78 26/26/26 
f 30/30/30 80/82/80 79/81/79 28/28/28 
f 32/32/32 81/83/81 80/82/80 30/30/30 
f 34/34/34 82/84/82 81/83/81 32/32/32 
f 36/36/36 83/85/83 82/84/82 34/34/34 
f 38/38/38 84/86/84 83/85/83 36/36/36 
f 40/40/40 85/87/85 84/86/84 38/38/38 
f 42/42/42 86/88/86 85/87/85 40/40/40 
f 44/44/44 87/89/87 86/88/86 42/42/42 
f 46/46/46 88/90/88 87/89/87 44/44/44 
f 48/48/48 89/91/89 88/90/88 46/46/46 
f 50/50/50 90/92/90 89/91/89 48/48/48 
f 52/52/52 91/93/91 90/92/90 50/50/50 
f 54/54/54 92/94/92 91/93/91 52/52/52 
f 56/56/56 93/95/93 92/94/92 54/54/54 
f 58/58/58 94/96/94 93/95/93 56/56/56 
f 60/60/60 95/97/95 94/96/94 58/58/58 
f 62/62/62 96/98/96 95/97/95 60/60/60 
f 64/64/64 66/68/66 96/98/96 62/62/62 
f 65/99/65 3/3/3 2/2/2 68/70/68 
f 67/69/67 97/100/97 98/101/98 68/70/68 
f 69/71/69 99/102/99 97/100/97 67/69/67 
f 70/72/70 100/103/100 99/102/99 69/71/69 
f 71/73/71 101/104/101 100/103/100 70/72/70 
f 72/74/72 102/105/102 101/104/101 71/73/71 
f 73/75/73 103/106/103 102/105/102 72/74/72 
f 74/76/74 104/107/104 103/106/103 73/75/73 
f 75/77/75 105/108/105 104/107/104 74/76/74 
f 76/78/76 106/109/106 105/108/105 75/77/75 
f 77/79/77 107/110/107 106/109/106 76/78/76 
f 78/80/78 108/111/108 107/110/107 77/79/77 
f 79/81/79 109/112/109 108/111/108 78/80/78 
f 80/82/80 110/113/110 109/112/109 79/81/79 
f 81/83/81 111/114/111 110/113/110 80/82/80 
f 82/84/82 112/115/112 111/114/111 81/83/81 
f 83/85/83 113/116/113 112/115/112 82/84/82 
f 84/86/84 114/117/114 113/116/113 83/85/83 
f 85/87/85 115/118/115 114/117/114 84/86/84 
f 86/88/86 116/119/116 115/118/115 85/87/85 
f 87/89/87 117/120/117 116/119/116 86/88/86 
f 88/90/88 118/121/118 117/120/117 87/89/87 
f 89/91/89 119/122/119 118/121/118 88/90/88 
f 90/92/90 120/123/120 119/122/119 89/91/89 
f 91/93/91 121/124/121 120/123/120 90/92/90 
f 92/94/92 122/125/122 121/124/121 91/93/91 
f 93/95/93 123/126/123 122/125/122 92/94/92 
f 94/96/94 124/127/124 123/126/123 93/95/93 
f 95/97/95 125/128/125 124/127/124 94/96/94 
f 96/98/96 126/129/126 125/128/125 95/97/95 
f 66/68/66 127/130/127 126/129/126 96/98/96 
f 65/67/65 128/131/128 127/130/127 66/68/66 
f 128/132/128 65/99/65 68/70/68 98/101/98 
# 96 polygons

