# Blender v3.2.1 OBJ File: '3DLiquid.blend'
# www.blender.org
mtllib 3DLiquid.mtl
o 3DLiquid_Cube.002
v 0.148464 0.344173 -0.157709
v 0.142725 0.482330 -0.137306
v 0.039595 0.268205 0.319007
v 0.059508 0.351127 0.320725
v -0.109156 0.318336 -0.248271
v -0.136959 0.485217 -0.282826
v -0.112153 0.266916 0.370449
v -0.156415 0.326198 0.363611
v 0.085604 0.324623 -0.549164
v 0.091243 0.458776 -0.492120
v -0.081687 0.338493 -0.591126
v 0.061742 0.265400 -0.957115
v 0.064012 0.406187 -0.914519
v 0.059428 0.270136 -1.291477
v -0.049969 0.168010 -1.298919
v -0.250817 0.331416 0.301086
v -0.306802 0.296267 0.217817
v -0.240204 0.348254 -0.287009
v -0.376671 0.413977 0.039188
v -0.399670 0.351200 -0.216072
v -0.294191 0.469299 -0.471256
v -0.302806 0.342167 -0.507211
v -0.401384 0.348801 -0.568303
v 0.073884 0.553210 -0.199388
v 0.072509 0.486537 0.267783
v -0.073012 0.458467 0.287652
v -0.084901 0.551441 -0.228224
v 0.037907 0.630777 -0.308981
v 0.046118 0.571889 0.170020
v -0.042046 0.565800 0.164451
v -0.045644 0.582661 -0.579357
v 0.043112 0.574907 -0.529344
v -0.044604 0.617757 -0.587769
v 0.028966 0.604675 -0.638487
v -0.323135 0.420684 -0.727885
v -0.332569 0.334054 -0.717502
v -0.401310 0.417787 -0.717502
v -0.386869 0.352683 -0.754874
v 0.031928 0.066150 -1.569113
v 0.033257 0.117726 -1.573016
v -0.025383 0.156369 -1.526343
v 0.094838 0.304991 0.132213
v -0.385671 0.342504 0.006272
v -0.390352 0.447789 -0.069306
v -0.054559 0.478462 -0.573906
v 0.080437 0.317032 -0.111650
v -0.031973 0.450097 -0.811575
v -0.127715 0.378797 -0.386939
v 0.156890 0.429178 -0.261298
v -0.090621 0.341494 -0.818288
v 0.032038 0.297075 -0.681713
v 0.104884 0.403267 -0.664425
v -0.025708 0.386256 -1.052821
v -0.080921 0.268636 -1.054563
v -0.232571 0.447328 -0.293551
v -0.149645 0.232542 0.240324
v -0.404490 0.380908 -0.094158
v -0.354696 0.308390 0.005486
v -0.356150 0.464503 -0.027270
v -0.365474 0.486841 -0.379541
v -0.420412 0.386364 -0.406057
v 0.068741 0.502206 -0.212561
v -0.083453 0.311953 0.381805
v -0.126019 0.462388 0.153518
v -0.075375 0.601779 -0.004401
v 0.069800 0.599867 -0.005504
v 0.019489 0.556616 -0.342563
v -0.088668 0.589591 -0.364556
v -0.027662 0.066417 -1.579540
v 0.082704 0.561537 0.140990
v -0.087000 0.625180 -0.271108
v -0.118483 0.516084 -0.129374
v -0.277457 0.329103 -0.245190
v -0.211655 0.311033 -0.175354
v 0.104029 0.417411 0.258075
v 0.132188 0.336606 0.120828
v 0.032894 0.467344 -0.674082
v 0.134967 0.369270 -0.401980
v -0.036742 0.316384 -0.462549
v -0.025384 0.229385 -1.062368
v -0.096317 0.442151 -0.556480
v -0.032398 0.283586 -0.819557
v 0.095566 0.332628 -0.805644
v 0.055461 0.146502 -1.349244
v 0.028341 0.336712 -1.179834
v -0.079041 0.395336 -0.925609
v -0.268845 0.381982 -0.429522
v -0.175609 0.378848 -0.290835
v -0.183823 0.254031 0.343347
v -0.218565 0.477960 -0.180620
v -0.336442 0.471630 -0.593095
v -0.293117 0.490614 -0.323681
v -0.401763 0.457909 -0.497407
v -0.164012 0.362552 0.294029
v 0.028768 0.616798 -0.014658
v -0.099548 0.500685 0.200465
v 0.072180 0.587921 -0.364974
v -0.011688 0.086743 -1.617611
v -0.057813 0.259935 -1.310587
v -0.010971 0.112797 -1.412321
v -0.167829 0.420377 0.126890
v -0.296648 0.404293 0.151239
v 0.160649 0.433390 -0.006856
vt 0.583333 0.279778
vt 0.375000 0.500000
vt 0.375000 0.250000
vt 0.439815 0.750000
vt 0.413733 0.750054
vt 0.560185 0.750000
vt 0.620833 0.702033
vt 0.625000 0.595876
vt 0.625000 0.740186
vt 0.663988 0.749947
vt 0.545933 0.749869
vt 0.792361 0.750000
vt 0.875000 0.750000
vt 0.558502 0.544855
vt 0.428626 0.512595
vt 0.549042 0.504987
vt 0.458688 0.750000
vt 0.593523 0.750000
vt 0.421707 0.750000
vt 0.672357 0.749993
vt 0.647226 0.729727
vt 0.689815 0.750000
vt 0.621279 0.000000
vt 0.393425 -0.056755
vt 0.865968 0.736152
vt 0.791667 0.750000
vt 0.625000 0.000000
vt 0.295833 0.750000
vt 0.375000 0.750000
vt 0.596074 0.750000
vt 0.381149 0.596412
vt 0.353116 0.587930
vt 0.620127 0.545314
vt 0.618941 0.605622
vt 0.443122 0.568374
vt 0.571981 0.636523
vt 0.617702 0.747089
vt 0.539912 0.417192
vt 0.625113 0.263201
vt 0.625000 0.459063
vt 0.625000 0.000000
vt 0.625000 0.001986
vt 0.625000 0.000000
vt 0.407407 0.750000
vt 0.570855 0.750000
vt 0.637389 0.750000
vt 0.860116 0.716512
vt 0.462619 0.749535
vt 0.588583 0.749934
vt 0.875000 0.750000
vt 0.875000 0.750000
vt 0.652409 0.734029
vt 0.792375 0.749595
vt 0.875000 0.750000
vt 0.631264 0.747211
vt 0.375000 0.000000
vt 0.141946 0.697682
vt 0.379726 0.750197
vt 0.291667 0.750000
vt 0.125000 0.500000
vt 0.375000 0.143004
vt 0.629181 0.699873
vt 0.408654 0.730750
vt 0.619500 0.217493
vt 0.623406 0.000000
vt 0.375000 1.000000
vt 0.410354 0.750000
vt 0.618152 0.750000
vt 0.375000 0.000000
vt 0.630753 0.991370
vt 0.541667 0.836806
vt 0.404302 0.523048
vt 0.617075 0.745707
vt 0.125000 0.750000
vt 0.875000 0.750000
vt 0.492962 0.132682
vt 0.566800 0.072390
vt 0.375000 0.000000
vt 0.663207 0.616860
vt 0.589647 0.489889
vt 0.204319 0.704220
vt 0.125000 0.606996
vt 0.704861 0.750000
vt 0.875000 0.750000
vt 0.704167 0.750000
vt 0.454673 0.749328
vt 0.352564 0.730750
vt 0.458854 0.747139
vt 0.291478 0.749535
vt 0.388889 0.750000
vt 0.795139 0.749793
vt 0.545139 0.001986
vt 0.625000 0.000000
vt 0.667818 0.517528
vt 0.815429 0.460891
vt 0.796202 0.607980
vt 0.375000 0.000000
vt 0.458333 0.000000
vt 0.125000 0.750000
vt 0.296188 0.750000
vt 0.208688 0.750000
vt 0.125000 0.750000
vt 0.458333 0.000000
vt 0.541667 0.000000
vt 0.625000 0.000000
vt 0.541659 0.748062
vt 0.589647 0.750000
vt 0.416667 0.742056
vt 0.462869 0.749797
vt 0.462619 0.653013
vt 0.379099 0.724697
vt 0.875000 0.750000
vt 0.625000 0.000000
vt 0.625000 0.146150
vt 0.625000 0.533267
vt 0.622108 0.532950
vt 0.378993 0.701969
vt 0.625000 0.578786
vt 0.625060 0.197900
vt 0.125000 0.750000
vt 0.625000 0.270462
vt 0.875000 0.606996
vn 0.6515 0.0504 0.7569
vn -0.0048 -0.6285 0.7778
vn 0.5628 -0.6600 0.4976
vn -0.4117 -0.4143 -0.8117
vn -0.7431 -0.6690 -0.0166
vn -0.6990 0.5582 -0.4471
vn 0.0768 0.9951 0.0621
vn -0.4555 0.8534 0.2534
vn -0.3737 0.8081 -0.4553
vn -0.2839 0.9513 -0.1202
vn -0.9049 0.3924 -0.1646
vn 0.3650 0.9215 -0.1329
vn 0.6928 0.7101 -0.1252
vn -0.8323 0.4072 0.3762
vn -0.8050 -0.4586 0.3763
vn -0.5969 0.4029 0.6938
vn -0.9374 -0.3461 0.0371
vn -0.7411 0.6416 -0.1976
vn -0.8717 -0.4841 0.0768
vn -0.6400 -0.6460 -0.4161
vn -0.7242 0.6892 0.0233
vn -0.6246 0.6099 -0.4877
vn 0.7226 0.6035 -0.3371
vn 0.7442 -0.6416 0.1858
vn 0.6826 0.3735 -0.6281
vn 0.2912 0.8902 -0.3503
vn 0.6763 0.7011 -0.2259
vn -0.2082 -0.9429 0.2599
vn -0.7162 -0.6800 0.1568
vn -0.7101 0.5970 -0.3733
vn -0.5145 -0.8571 -0.0252
vn -0.0662 -0.9977 0.0157
vn -0.3565 0.8233 0.4417
vn -0.3307 0.9120 0.2427
vn -0.9375 -0.3041 0.1691
vn -0.8332 0.5402 0.1179
vn -0.5327 0.8457 -0.0304
vn 0.0691 0.0303 0.9972
vn 0.5027 0.5595 0.6590
vn -0.3180 0.6531 0.6873
vn 0.4737 0.8804 -0.0200
vn 0.9785 -0.0945 -0.1835
vn 0.7707 -0.6118 -0.1779
vn 0.5067 -0.7634 -0.4006
vn 0.5728 0.5234 -0.6309
vn -0.5967 0.6508 -0.4695
vn -0.9978 -0.0036 0.0666
vn -0.7467 0.6578 -0.0985
vn 0.4197 0.0766 -0.9044
vn -0.8949 0.1015 -0.4345
vn 0.1918 -0.9773 -0.0903
vn 0.8895 0.2763 -0.3640
vn -0.9850 -0.0365 -0.1689
vn 0.5572 -0.7275 -0.4002
vn -0.5658 -0.7511 -0.3401
vn -0.0771 -0.9487 0.3066
vn 0.4677 -0.8830 0.0399
vn -0.8558 0.5169 0.0211
vn -0.8383 -0.5442 -0.0341
vn 0.9019 0.1184 0.4154
vn 0.5925 -0.7963 -0.1219
vn 0.0104 0.9538 -0.3002
vn 0.6580 -0.7449 0.1099
vn -0.0709 -0.2249 -0.9718
vn -0.3983 -0.6953 0.5983
vn 0.1838 0.9810 -0.0621
vn 0.8367 -0.5193 0.1739
vn 0.9880 0.1261 0.0891
vn 0.8710 -0.4895 -0.0420
vn -0.5708 0.8127 0.1169
vn -0.4404 0.3112 0.8422
vn 0.3149 -0.9469 -0.0647
vn -0.2519 0.9501 -0.1840
vn -0.2497 0.9099 -0.3312
vn -0.8963 -0.3874 -0.2156
vn -0.1743 -0.9563 -0.2348
vn -0.3300 -0.4220 -0.8444
vn -0.2667 -0.9633 -0.0297
vn -0.7564 -0.6541 -0.0059
vn 0.4920 0.7720 -0.4024
vn 0.9139 0.3811 -0.1396
vn 0.9063 0.4118 -0.0946
vn -0.3764 0.8334 0.4047
vn 0.1953 0.8741 0.4448
vn 0.1351 0.9817 0.1340
vn 0.6658 -0.7453 -0.0354
vn 0.9066 -0.4052 -0.1177
vn -0.3953 -0.9069 0.1461
vn 0.2064 -0.9723 0.1097
vn 0.9235 -0.3837 -0.0030
vn 0.9287 0.3538 -0.1108
vn 0.5126 0.5631 -0.6481
vn 0.6621 0.7189 -0.2114
vn 0.4951 -0.7054 -0.5071
vn 0.9269 -0.2990 -0.2268
vn -0.9924 -0.1202 0.0271
vn -0.0167 -0.9915 -0.1288
vn 0.6538 0.7536 0.0682
vn -0.7643 0.5228 0.3775
vn -0.3663 0.7883 0.4944
vn -0.1008 -0.9663 -0.2367
vn -0.8028 0.5624 0.1980
vn 0.7105 0.6596 0.2452
usemtl None
s 1
f 4/1/1 7/2/2 3/3/3
f 38/4/4 23/5/5 37/6/6
f 90/7/7 101/8/8 6/9/9
f 45/10/10 81/11/11 6/9/9
f 77/12/12 45/10/10 10/13/13
f 19/14/14 17/15/15 16/16/16
f 50/17/17 86/18/18 54/19/19
f 31/20/20 71/21/21 33/22/22
f 14/23/23 84/24/24 40/25/25
f 14/23/23 85/26/26 13/27/27
f 80/28/28 54/19/19 15/29/29
f 99/30/30 15/29/29 54/19/19
f 58/31/31 56/32/32 17/15/15
f 102/33/33 101/8/8 59/34/34
f 43/35/35 58/31/31 17/15/15
f 44/36/36 59/34/34 60/37/37
f 63/38/38 4/1/1 25/39/39 26/40/40
f 28/41/41 97/42/42 32/43/43
f 36/44/44 38/4/4 35/45/45
f 40/25/25 41/46/46 14/47/23
f 61/48/47 93/49/48 23/5/5
f 31/20/20 34/50/49 32/51/43
f 35/45/45 38/4/4 37/6/6
f 27/52/50 67/53/51 24/54/52
f 27/52/50 71/21/21 68/55/53
f 23/5/5 38/4/4 36/44/44
f 56/32/32 3/3/3 7/2/2
f 39/56/54 84/57/24 69/58/55
f 84/57/24 100/59/56 69/58/55
f 69/58/55 100/59/56 15/29/29
f 3/60/3 56/32/32 42/61/57
f 68/55/53 71/21/21 31/20/20
f 27/52/50 6/9/9 72/62/58
f 102/33/33 19/14/14 16/16/16
f 93/49/48 61/48/47 20/63/59
f 19/14/14 43/35/35 17/15/15
f 75/64/60 25/39/39 4/1/1
f 40/65/25 84/57/24 39/66/54
f 23/5/5 36/44/44 22/67/61
f 93/49/48 91/68/62 35/45/45
f 3/60/3 42/61/57 4/1/1
f 84/24/24 14/23/23 12/69/63
f 41/46/46 40/70/25 98/71/64
f 89/72/65 56/32/32 7/2/2
f 59/34/34 90/7/7 92/73/66
f 39/74/54 69/58/55 40/65/25
f 22/67/61 36/44/44 35/45/45
f 28/75/41 34/50/49 33/22/22
f 37/6/6 23/5/5 93/49/48
f 31/20/20 33/22/22 34/50/49
f 42/61/57 76/76/67 4/1/1
f 4/1/1 63/38/38 7/2/2
f 19/14/14 59/34/34 44/36/36
f 28/75/41 33/22/22 71/21/21
f 34/50/49 28/41/41 32/51/43
f 37/6/6 93/49/48 35/45/45
f 103/77/68 76/76/67 1/78/69
f 69/58/55 98/71/64 40/70/25
f 65/79/70 71/21/21 27/52/50
f 8/80/71 89/72/65 7/2/2 63/38/38
f 46/81/72 1/78/69 76/76/67 42/82/57
f 90/7/7 59/34/34 101/8/8
f 81/11/11 45/10/10 47/83/73 86/18/18
f 86/18/18 47/83/73 13/84/27 53/85/74
f 48/86/75 5/87/76 88/88/77 6/9/9
f 79/89/78 5/87/76 48/86/75 11/90/79
f 62/91/80 6/9/9 27/52/50 24/54/52
f 49/92/81 2/93/82 103/77/68 1/78/69
f 49/92/81 10/13/13 62/91/80 2/93/82
f 30/94/83 29/95/84 95/96/85 65/79/70
f 46/81/72 9/97/86 78/98/87 1/99/69
f 45/10/10 6/9/9 62/91/80 10/13/13
f 82/100/88 11/90/79 50/17/17 54/19/19
f 15/29/29 100/59/56 84/57/24
f 79/89/78 11/90/79 51/101/89 9/102/86
f 83/103/90 9/102/86 51/101/89 12/69/63
f 9/97/86 52/104/91 10/105/13 78/98/87
f 52/104/91 13/84/27 77/12/12 10/105/13
f 14/23/23 13/27/27 83/103/90 12/69/63
f 47/83/73 45/10/10 77/12/12 13/84/27
f 53/85/74 99/30/30 86/18/18
f 90/7/7 6/9/9 55/106/92 92/73/66
f 55/106/92 21/107/93 92/73/66
f 55/106/92 18/108/94 87/109/95 21/107/93
f 57/110/96 43/35/35 19/14/14 44/36/36
f 58/31/31 43/35/35 57/110/96 20/63/59
f 73/111/97 20/63/59 23/5/5 22/67/61
f 73/111/97 22/67/61 87/109/95 18/108/94
f 60/37/37 21/107/93 91/68/62 93/49/48
f 2/112/82 62/91/80 24/113/52 66/114/98
f 23/5/5 20/63/59 61/48/47
f 26/40/40 30/94/83 96/115/99
f 94/116/100 8/80/71 63/38/38 26/40/40
f 74/117/101 5/87/76 56/32/32 58/31/31
f 67/53/51 32/43/43 97/42/42 24/54/52
f 64/118/102 26/40/40 96/115/99
f 87/109/95 22/67/61 35/45/45 21/107/93
f 31/20/20 27/52/50 68/55/53
f 14/47/23 41/46/46 99/30/30 85/26/26
f 91/68/62 21/107/93 35/45/45
f 69/58/55 15/29/29 99/30/30 41/46/46
f 69/58/55 41/46/46 98/71/64
f 65/79/70 27/52/50 72/62/58 64/118/102
f 29/95/84 25/39/39 70/119/103
f 74/117/101 58/31/31 73/111/97 18/108/94
f 74/117/101 18/108/94 88/88/77 5/87/76
f 16/16/16 8/80/71 94/116/100
f 75/64/60 4/1/1 76/76/67 103/77/68
f 103/77/68 2/93/82 66/114/98 70/119/103
f 89/72/65 8/80/71 16/16/16 17/15/15
f 72/62/58 6/9/9 101/8/8 64/118/102
f 50/17/17 11/90/79 81/11/11 86/18/18
f 54/19/19 80/28/28 12/120/63 82/100/88
f 53/85/74 13/84/27 85/26/26 99/30/30
f 93/49/48 20/63/59 44/36/36 60/37/37
f 86/18/18 99/30/30 54/19/19
f 92/73/66 60/37/37 59/34/34
f 26/40/40 25/39/39 29/95/84 30/94/83
f 67/53/51 27/52/50 31/20/20 32/51/43
f 92/73/66 21/107/93 60/37/37
f 64/118/102 101/8/8 94/116/100 26/40/40
f 58/31/31 20/63/59 73/111/97
f 28/41/41 66/114/98 24/113/52 97/42/42
f 66/114/98 28/75/41 95/96/85
f 65/79/70 64/118/102 96/115/99 30/94/83
f 95/96/85 29/121/84 70/119/103 66/122/98
f 55/106/92 6/9/9 88/88/77 18/108/94
f 59/34/34 19/14/14 102/33/33
f 94/116/100 101/8/8 102/33/33 16/16/16
f 44/36/36 20/63/59 57/110/96
f 89/72/65 17/15/15 56/32/32
f 46/81/72 42/82/57 56/32/32 5/87/76
f 71/21/21 65/79/70 95/96/85 28/75/41
f 49/92/81 1/78/69 78/98/87 10/105/13
f 75/64/60 103/77/68 70/119/103 25/39/39
f 48/86/75 6/9/9 81/11/11 11/90/79
f 46/81/72 5/87/76 79/89/78 9/102/86
f 52/104/91 9/97/86 83/103/90 13/27/27
f 51/101/89 11/90/79 82/100/88 12/120/63
f 84/57/24 12/120/63 80/28/28 15/29/29
